<svg xmlns="http://www.w3.org/2000/svg" viewBox="0 0 32 32" fill="none">
  <rect width="32" height="32" rx="8" fill="#4f46e5"/>
  <svg x="8" y="8" width="16" height="16" viewBox="0 0 300 300">
    <g transform="scale(1 -1) translate(0 -300)" fill="#ffffff">
      <path d="M19 300 0 281 41 223Q47 216 57 216H58Q66 216 71 210L121 160L72 110Q59 114 46.0 111.5Q33 109 22.5 101.0Q12 93 6.0 81.5Q0 70 0 56Q0 40 9.0 26.0Q18 12 33.0 5.0Q48 -2 64.5 0.5Q81 3 93.5 14.0Q106 25 110.5 40.5Q115 56 110 72L160 121L178 103L172 86Q171 81 172.0 76.0Q173 71 177 67L238 5Q244 0 251.5 0.0Q259 0 265 5L295 35Q300 41 300.0 48.5Q300 56 295 62L233 123Q229 127 224.0 128.0Q219 129 214 128L197 122L179 140L229 189Q242 186 255.0 188.5Q268 191 278.0 199.0Q288 207 294.0 219.0Q300 231 300 244Q300 251 298 258L258 218L225 225L218 258L258 298Q244 302 229.5 298.0Q215 294 204.0 283.5Q193 273 189.0 258.5Q185 244 189 229L140 179L90 229Q84 234 84 242V243Q84 253 77 259ZM200 100Q202 103 206.0 103.0Q210 103 213 100L268 46Q270 43 270.0 39.0Q270 35 267.5 32.5Q265 30 261.0 30.0Q257 30 254 32L200 87Q197 90 197.0 94.0Q197 98 200 100ZM56 94 65 89H75L80 80L89 75V65L94 56L89 47V38L80 32L75 24L65 23L56 19L47 23L38 24L32 32L24 38L23 47L19 56L23 65L24 75L32 80L38 89H47Z"/>
    </g>
  </svg>
</svg>
